# xmcd
#
# Track frame offsets:
#   150
#   9245
#   22412
#   37671
#   49976
#   62075
#   78454
#   90079
#   106549
#   119002
#   129269
#   144112
#   154756
#   165162
#
# Disc length: 2421 seconds
#
# Revision: 0
# Processed by: cddbd v1.5.1PL2 Copyright (c) Steve Scherf et al.
# Submitted via: uFREEDB ActiveX Control 1.5
#
DISCID=9a09730e
DTITLE=Tião Carreiro e Carreirinho - Meu carro é minha viola
DYEAR=1962
DGENRE=Country
TTITLE0=O Beijo
TTITLE1=Adeus São Paulo
TTITLE2=Boi Cigano
TTITLE3=Coração do Brasil
TTITLE4=Viva quem ama
TTITLE5=Triste caminho
TTITLE6=Remorso
TTITLE7=Terra Roxa
TTITLE8=A viola e o violeiro
TTITLE9=Minha historia
TTITLE10=Meu carro é minha viola
TTITLE11=Falsa ilusão
TTITLE12=Saudade de minha terra
TTITLE13=Riquezas do Brasil
EXTD=
EXTT0=
EXTT1=
EXTT2=
EXTT3=
EXTT4=
EXTT5=
EXTT6=
EXTT7=
EXTT8=
EXTT9=
EXTT10=
EXTT11=
EXTT12=
EXTT13=
PLAYORDER=
